<svg width="20" height="20" viewBox="0 0 20 20" fill="none" xmlns="http://www.w3.org/2000/svg">
<path d="M1.66675 7.91613C1.66677 6.9888 1.94808 6.08328 2.47353 5.31918C2.99898 4.55508 3.74385 3.96835 4.60976 3.63646C5.47567 3.30458 6.42188 3.24317 7.32343 3.46033C8.22497 3.6775 9.03944 4.16303 9.65925 4.8528C9.7029 4.89948 9.75568 4.93669 9.81431 4.96213C9.87294 4.98757 9.93617 5.0007 10.0001 5.0007C10.064 5.0007 10.1272 4.98757 10.1859 4.96213C10.2445 4.93669 10.2973 4.89948 10.3409 4.8528C10.9588 4.15855 11.7734 3.66894 12.6764 3.44913C13.5795 3.22933 14.528 3.28975 15.3958 3.62237C16.2636 3.95498 17.0096 4.54401 17.5343 5.31105C18.0591 6.07809 18.3378 6.98676 18.3334 7.91613C18.3334 9.82446 17.0834 11.2495 15.8334 12.4995L11.2567 16.927C11.1015 17.1053 10.91 17.2486 10.6951 17.3472C10.4802 17.4459 10.2468 17.4977 10.0103 17.4992C9.77386 17.5007 9.53979 17.4518 9.32365 17.3559C9.10752 17.26 8.91427 17.1192 8.75675 16.9428L4.16675 12.4995C2.91675 11.2495 1.66675 9.8328 1.66675 7.91613Z" fill="#FF5D1A" stroke="#FF5D1A" stroke-width="1.66667" stroke-linecap="round" stroke-linejoin="round"/>
</svg>
