<svg width="32" height="32" viewBox="0 0 32 32" fill="none" xmlns="http://www.w3.org/2000/svg">
<g clip-path="url(#clip0_372_317)">
<path d="M0 7.3124C0 3.27393 3.27393 0 7.3124 0H24.6874C28.7261 0 32 3.27393 32 7.3124V24.6874C32 28.7261 28.7261 32 24.6874 32H7.3124C3.27393 32 0 28.7261 0 24.6874V7.3124Z" fill="white"/>
<path d="M8.50012 23.5C8.50012 21.429 10.1791 19.75 12.2501 19.75H16V23.5C16 25.5711 14.3212 27.25 12.2501 27.25C10.1791 27.25 8.50012 25.5711 8.50012 23.5Z" fill="#24CB71"/>
<path d="M16 4.75V12.2499H19.75C21.8211 12.2499 23.5 10.5711 23.5 8.50002C23.5 6.42895 21.8211 4.75 19.75 4.75H16Z" fill="#FF7237"/>
<path d="M19.7189 19.75C21.7899 19.75 23.4688 18.071 23.4688 16C23.4688 13.9289 21.7899 12.25 19.7189 12.25C17.6478 12.25 15.9689 13.9289 15.9689 16C15.9689 18.071 17.6478 19.75 19.7189 19.75Z" fill="#00B6FF"/>
<path d="M8.50012 8.50002C8.50012 10.5711 10.1791 12.25 12.2501 12.25H16V4.75H12.2501C10.1791 4.75 8.50012 6.42895 8.50012 8.50002Z" fill="#FF3737"/>
<path d="M8.50012 15.9998C8.50012 18.0709 10.1791 19.7499 12.2501 19.7499H16V12.25H12.2501C10.1791 12.25 8.50012 13.9288 8.50012 15.9998Z" fill="#874FFF"/>
</g>
<defs>
<clipPath id="clip0_372_317">
<rect width="32" height="32" rx="8" fill="white"/>
</clipPath>
</defs>
</svg>
